<?xml version="1.0" standalone="no"?>
<!DOCTYPE svg PUBLIC "-//W3C//DTD SVG 20010904//EN"
 "http://www.w3.org/TR/2001/REC-SVG-20010904/DTD/svg10.dtd">
<svg version="1.0" xmlns="http://www.w3.org/2000/svg"
 width="2412.000000pt" height="2412.000000pt" viewBox="0 0 2412.000000 2412.000000"
 preserveAspectRatio="xMidYMid meet">
<metadata>
Created by potrace 1.11, written by Peter Selinger 2001-2013
</metadata>
<g transform="translate(0.000000,2412.000000) scale(0.100000,-0.100000)"
fill="#000000" stroke="none">
<path d="M16977 24063 l-57 -58 -8397 -3 c-4618 -1 -8398 -4 -8400 -5 -1 -2
-4 -3782 -5 -8400 l-3 -8396 -57 -58 -58 -59 0 -3542 0 -3542 12060 0 12060 0
0 12060 0 12060 -3543 0 -3542 0 -58 -57z m2563 -2653 l0 -770 -3755 0 -3755
0 0 -2107 c0 -1158 3 -2104 6 -2101 3 4 317 726 698 1605 l693 1598 1191 3
1192 2 0 -7200 0 -7200 -1190 0 -1190 0 0 4948 c-1 4125 -3 4943 -14 4922 -7
-14 -322 -793 -700 -1731 l-686 -1707 0 -4546 0 -4546 -1270 0 -1270 0 0 9030
0 9030 -3755 0 -3755 0 0 770 0 770 8780 0 8780 0 0 -770z m-12713 -6218
l1933 -4443 0 -1805 0 -1804 -313 0 -313 0 -447 1103 c-2106 5203 -2778 6861
-2787 6875 -6 11 -9 -1677 -10 -4930 l0 -4948 -1190 0 -1190 0 0 7200 0 7200
1192 -2 1191 -3 1934 -4443z"/>
<path d="M11494 13131 c-27 -12 -68 -66 -82 -108 l-11 -33 45 0 c38 0 46 4 56
25 15 33 53 43 78 20 11 -10 20 -24 20 -32 0 -9 13 -13 40 -13 25 0 40 5 40
13 -1 27 -40 96 -64 112 -31 20 -93 28 -122 16z"/>
<path d="M11212 13095 c-7 -14 -15 -44 -18 -65 l-7 -40 41 0 c38 0 41 2 47 33
4 17 9 40 11 49 3 11 -5 22 -25 32 -38 20 -36 21 -49 -9z"/>
<path d="M11194 12923 c15 -64 77 -118 136 -118 48 0 87 27 117 81 32 55 30
64 -17 64 -29 0 -46 -7 -65 -26 -28 -28 -60 -26 -84 7 -9 13 -26 19 -53 19
-39 0 -40 -1 -34 -27z"/>
<path d="M11595 12899 c-17 -55 -18 -54 28 -80 10 -6 20 -9 22 -7 16 18 35 74
35 103 0 33 -2 35 -34 35 -32 0 -35 -3 -51 -51z"/>
<path d="M11613 12669 c-8 -8 -72 -14 -170 -18 -171 -7 -194 -13 -230 -68 -25
-38 -23 -144 5 -205 11 -27 25 -48 29 -48 4 0 18 8 31 18 l22 17 -20 40 c-26
50 -26 99 0 125 18 18 33 20 155 20 122 0 137 -2 155 -20 11 -11 20 -24 20
-30 0 -5 14 -10 30 -10 37 0 39 18 6 57 l-24 27 29 27 c36 33 37 52 4 67 -31
14 -29 14 -42 1z"/>
<path d="M11392 12456 c5 -81 35 -129 95 -152 43 -17 96 -14 136 8 27 14 57
69 57 106 0 30 -2 32 -35 32 -23 0 -35 -5 -35 -13 0 -26 -36 -47 -78 -47 -49
0 -77 29 -87 90 -6 34 -10 40 -32 40 -25 0 -25 -1 -21 -64z"/>
<path d="M11195 12181 c-7 -12 4 -90 17 -113 6 -13 21 -18 47 -18 l38 0 -1 70
-1 70 -47 0 c-26 0 -49 -4 -53 -9z"/>
<path d="M11223 12013 c-20 -4 -23 -11 -23 -49 l0 -44 240 0 240 0 0 50 0 50
-217 -1 c-120 -1 -228 -4 -240 -6z"/>
<path d="M11613 11769 c-8 -8 -72 -14 -170 -18 -171 -7 -194 -13 -230 -68 -25
-38 -23 -144 5 -205 11 -27 25 -48 29 -48 4 0 18 8 31 18 l22 17 -20 40 c-26
50 -26 99 0 125 18 18 33 20 155 20 122 0 137 -2 155 -20 11 -11 20 -24 20
-30 0 -5 14 -10 30 -10 37 0 39 18 6 57 l-24 27 29 27 c36 33 37 52 4 67 -31
14 -29 14 -42 1z"/>
<path d="M11392 11556 c5 -81 35 -129 95 -152 43 -17 96 -14 136 8 27 14 57
69 57 106 0 30 -2 32 -35 32 -23 0 -35 -5 -35 -13 0 -26 -36 -47 -78 -47 -49
0 -77 29 -87 90 -6 34 -10 40 -32 40 -25 0 -25 -1 -21 -64z"/>
<path d="M11050 11045 l0 -235 35 0 35 0 0 90 0 90 280 0 280 0 0 55 0 55
-280 0 -280 0 0 90 0 90 -35 0 -35 0 0 -235z"/>
<path d="M11200 10426 l0 -51 138 -48 c490 -173 494 -175 480 -252 -4 -20 0
-25 24 -31 17 -3 35 -1 41 5 18 18 12 110 -10 140 -26 35 -133 87 -328 160
-88 33 -202 75 -252 94 l-93 35 0 -52z"/>
<path d="M11355 10170 l-150 -57 -3 -52 -3 -52 33 14 c18 7 115 46 215 87
l183 75 -51 22 c-29 13 -57 23 -63 22 -6 -1 -78 -27 -161 -59z"/>
<path d="M11200 9857 l0 -52 208 -73 c408 -144 416 -148 410 -213 -3 -35 -1
-39 24 -44 15 -4 32 -4 36 -1 15 9 21 60 12 102 -16 71 -61 96 -419 230 -97
37 -197 75 -223 85 l-48 19 0 -53z"/>
<path d="M11355 9600 l-150 -58 -3 -52 c-2 -40 0 -51 10 -47 7 2 83 34 168 69
85 36 177 73 204 84 l50 18 -50 22 c-27 13 -56 23 -64 22 -8 0 -82 -26 -165
-58z"/>
<path d="M11556 9235 l-119 -95 -31 22 c-17 12 -68 48 -113 80 -44 32 -84 58
-87 58 -3 0 -6 -24 -6 -53 l0 -54 85 -56 c82 -55 87 -57 151 -57 65 0 65 0
154 68 l89 67 1 58 c0 31 -1 57 -2 57 -2 -1 -56 -43 -122 -95z"/>
<path d="M11010 8990 l0 -50 335 0 335 0 0 50 0 50 -335 0 -335 0 0 -50z"/>
<path d="M11494 8791 c-27 -12 -68 -66 -82 -108 l-11 -33 45 0 c38 0 46 4 56
25 15 33 53 43 78 20 11 -10 20 -24 20 -32 0 -9 13 -13 40 -13 25 0 40 5 40
13 -1 27 -40 96 -64 112 -31 20 -93 28 -122 16z"/>
<path d="M11212 8755 c-7 -14 -15 -44 -18 -65 l-7 -40 41 0 c38 0 41 2 47 33
4 17 9 40 11 49 3 11 -5 22 -25 32 -38 20 -36 21 -49 -9z"/>
<path d="M11194 8583 c15 -64 77 -118 136 -118 48 0 87 27 117 81 32 55 30 64
-17 64 -29 0 -46 -7 -65 -26 -28 -28 -60 -26 -84 7 -9 13 -26 19 -53 19 -39 0
-40 -1 -34 -27z"/>
<path d="M11595 8559 c-17 -55 -18 -54 28 -80 10 -6 20 -9 22 -7 16 18 35 74
35 103 0 33 -2 35 -34 35 -32 0 -35 -3 -51 -51z"/>
<path d="M11202 8284 l3 -56 160 -49 c131 -40 174 -48 238 -49 74 0 77 1 77
23 0 17 -9 26 -32 34 -220 77 -440 153 -444 153 -3 0 -4 -25 -2 -56z"/>
<path d="M11420 8054 c-63 -19 -139 -41 -167 -50 l-53 -15 0 -55 c0 -30 4 -54
9 -54 5 0 49 14 98 31 48 17 140 49 203 70 174 60 170 59 170 85 0 23 -3 24
-72 23 -53 0 -105 -10 -188 -35z"/>
<path d="M11390 7764 c-104 -19 -190 -100 -190 -179 0 -22 4 -25 35 -25 28 0
37 5 49 29 48 91 252 92 304 1 14 -25 23 -30 55 -30 31 0 37 3 37 20 0 54 -67
137 -131 164 -40 17 -121 27 -159 20z"/>
<path d="M11200 7503 c0 -39 43 -106 89 -136 129 -86 321 -39 377 92 24 58 20
71 -26 71 -28 0 -40 -4 -40 -14 0 -8 -14 -26 -30 -40 -82 -68 -244 -55 -285
24 -13 25 -22 30 -50 30 -31 0 -35 -3 -35 -27z"/>
<path d="M11615 7181 c-13 -60 -15 -60 -321 -63 l-279 -3 0 -50 0 -50 290 0
c365 0 375 3 375 134 0 61 0 61 -29 61 -24 0 -31 -5 -36 -29z"/>
<path d="M11200 6857 l0 -52 208 -73 c408 -144 416 -148 410 -213 -3 -35 -1
-39 24 -44 15 -4 32 -4 36 -1 15 9 21 60 12 102 -16 71 -61 96 -419 230 -97
37 -197 75 -223 85 l-48 19 0 -53z"/>
<path d="M11355 6600 l-150 -58 -3 -52 c-2 -40 0 -51 10 -47 7 2 83 34 168 69
85 36 177 73 204 84 l50 18 -50 22 c-27 13 -56 23 -64 22 -8 0 -82 -26 -165
-58z"/>
<path d="M11613 6289 c-8 -8 -72 -14 -170 -18 -171 -7 -194 -13 -230 -68 -25
-38 -23 -144 5 -205 11 -27 25 -48 29 -48 4 0 18 8 31 18 l22 17 -20 40 c-26
50 -26 99 0 125 18 18 33 20 155 20 122 0 137 -2 155 -20 11 -11 20 -24 20
-30 0 -5 14 -10 30 -10 37 0 39 18 6 57 l-24 27 29 27 c36 33 37 52 4 67 -31
14 -29 14 -42 1z"/>
<path d="M11392 6076 c5 -81 35 -129 95 -152 43 -17 96 -14 136 8 27 14 57 69
57 106 0 30 -2 32 -35 32 -23 0 -35 -5 -35 -13 0 -26 -36 -47 -78 -47 -49 0
-77 29 -87 90 -6 34 -10 40 -32 40 -25 0 -25 -1 -21 -64z"/>
<path d="M11284 5786 c-41 -18 -83 -74 -91 -120 -4 -23 1 -53 12 -81 14 -39
20 -45 46 -45 28 0 29 1 23 40 -17 106 10 120 236 120 l170 0 0 50 0 50 -182
0 c-132 -1 -192 -5 -214 -14z"/>
<path d="M11017 5503 c-4 -3 -7 -26 -7 -50 l0 -43 335 0 335 0 0 50 0 50 -328
0 c-181 0 -332 -3 -335 -7z"/>
<path d="M11556 5195 l-119 -95 -31 22 c-17 12 -68 48 -113 80 -44 32 -84 58
-87 58 -3 0 -6 -24 -6 -53 l0 -54 85 -56 c81 -55 87 -57 150 -57 65 0 66 0
155 67 l90 68 0 57 c0 32 -1 58 -2 58 -2 -1 -56 -43 -122 -95z"/>
<path d="M11010 4950 l0 -50 335 0 335 0 0 50 0 50 -335 0 -335 0 0 -50z"/>
<path d="M11200 4726 l0 -51 138 -48 c490 -173 494 -175 480 -252 -4 -20 0
-25 24 -31 17 -3 35 -1 41 5 18 18 12 110 -10 140 -26 35 -133 87 -328 160
-88 33 -202 75 -252 94 l-93 35 0 -52z"/>
<path d="M11355 4470 l-150 -57 -3 -52 -3 -52 33 14 c18 7 115 46 215 87 l183
75 -51 22 c-29 13 -57 23 -63 22 -6 -1 -78 -27 -161 -59z"/>
<path d="M11052 4109 l3 -52 80 -34 c44 -20 130 -57 191 -84 104 -45 118 -49
193 -49 58 0 81 4 81 13 0 6 -80 44 -178 84 l-177 72 218 1 217 0 0 50 0 50
-316 0 -315 0 3 -51z"/>
<path d="M11280 3784 c-80 -35 -164 -71 -187 -80 l-43 -17 0 -53 0 -54 315 0
315 0 0 50 0 50 -212 0 c-127 0 -208 4 -202 9 5 5 81 38 169 74 88 36 161 70
163 76 2 7 -25 11 -85 11 -86 -1 -91 -2 -233 -66z"/>
<path d="M11269 3416 c-88 -31 -160 -100 -196 -186 -28 -70 -24 -191 9 -255
33 -64 89 -120 153 -153 42 -22 63 -26 135 -26 97 0 148 18 215 77 93 80 130
226 90 348 -25 75 -119 168 -194 192 -63 20 -161 21 -212 3z m227 -47 c203
-102 215 -383 21 -503 -67 -41 -179 -49 -255 -16 -63 27 -132 99 -157 163 -27
71 -18 182 21 243 79 128 241 177 370 113z"/>
<path d="M11191 3216 c-18 -21 -24 -98 -12 -144 25 -92 112 -149 215 -140 73
6 119 38 153 106 21 43 25 62 20 102 -8 66 -22 90 -53 90 -17 0 -24 -4 -20
-12 23 -58 27 -86 17 -124 -16 -59 -59 -96 -120 -102 -61 -6 -102 10 -137 51
-23 27 -25 38 -22 91 2 34 8 69 12 79 7 14 3 17 -17 17 -13 0 -30 -6 -36 -14z"/>
</g>
</svg>
